<svg viewBox="0 0 358.59 55.37" xmlns="http://www.w3.org/2000/svg"><g fill="#fff"><path d="m20.44 54.51h-20.44l9.05-54.51h19.83c5.55 0 10.18 1.12 13.87 3.37s6.3 5.46 7.84 9.64c1.53 4.18 1.82 9.15.87 14.92-.92 5.57-2.77 10.35-5.55 14.32-2.78 3.98-6.33 7.01-10.66 9.12-4.33 2.1-9.26 3.15-14.8 3.15zm-5.4-11.23h6.23c3.05 0 5.75-.55 8.11-1.66 2.35-1.11 4.3-2.89 5.84-5.35s2.64-5.7 3.3-9.73c.64-3.82.62-6.84-.07-9.06-.68-2.23-2-3.82-3.94-4.79s-4.48-1.45-7.6-1.45h-6.55l-5.32 32.05z"/><path d="m123.21 0-9.05 54.51h-13.02l9.06-54.51h13.02z"/><path d="m144.48 0-9.05 54.51h-13.02l9.06-54.51h13.02z"/><path d="m155.1 55.21c-2.59 0-4.82-.44-6.69-1.32s-3.24-2.21-4.11-4.01c-.87-1.79-1.07-4.03-.61-6.71.37-2.27 1.09-4.18 2.16-5.74 1.06-1.55 2.37-2.82 3.93-3.79 1.55-.98 3.29-1.72 5.2-2.24 1.92-.51 3.92-.86 6.02-1.04 2.34-.21 4.25-.44 5.71-.69s2.56-.59 3.3-1.04c.74-.44 1.18-1.08 1.32-1.92v-.13c.21-1.37-.08-2.42-.88-3.17s-2-1.12-3.59-1.12c-1.7 0-3.16.37-4.37 1.1-1.21.74-2.06 1.77-2.56 3.1l-11.9-.43c.75-2.48 2.02-4.71 3.83-6.67s4.11-3.5 6.91-4.63c2.79-1.13 6.03-1.69 9.7-1.69 2.59 0 4.93.31 7.03.92 2.09.61 3.86 1.5 5.31 2.66s2.48 2.59 3.1 4.27c.62 1.69.75 3.61.37 5.78l-4.63 27.79h-12.24l.96-5.7h-.32c-.96 1.38-2.08 2.56-3.37 3.51-1.29.96-2.73 1.68-4.33 2.16s-3.35.72-5.24.72zm5.46-8.52c1.4 0 2.71-.28 3.93-.85s2.24-1.35 3.09-2.36c.84-1 1.38-2.17 1.61-3.5l.61-3.89c-.37.2-.84.37-1.41.52s-1.17.3-1.81.44-1.3.27-1.97.37c-.67.11-1.31.21-1.92.32-1.26.2-2.36.5-3.3.91s-1.69.94-2.25 1.58c-.56.65-.91 1.42-1.05 2.3-.2 1.33.12 2.36.96 3.07.83.72 2.01 1.08 3.51 1.08z"/><path d="m187.58 54.51 6.81-40.89h12.64l-1.22 7.45h.43c1.19-2.7 2.74-4.71 4.64-6.03 1.91-1.32 3.98-1.98 6.22-1.98.6 0 1.21.04 1.82.12s1.19.19 1.74.33l-1.92 11.34c-.6-.23-1.39-.4-2.36-.52s-1.86-.17-2.68-.17c-1.53 0-2.95.34-4.29 1.02-1.33.68-2.45 1.63-3.37 2.85-.91 1.22-1.51 2.64-1.8 4.27l-3.67 22.2h-13.02z"/><path d="m239.87 54.51h-17.04l9.06-54.51h17.36c5.29 0 9.65 1.11 13.08 3.33s5.83 5.39 7.19 9.5c1.36 4.12 1.56 9.03.6 14.75-.92 5.61-2.71 10.42-5.36 14.44s-6.08 7.11-10.27 9.26c-4.2 2.16-9.06 3.23-14.6 3.23zm-9.45-5.86h9.66c4.51 0 8.4-.89 11.67-2.66s5.92-4.3 7.93-7.59c2.01-3.28 3.39-7.18 4.14-11.69.75-4.33.68-8.05-.2-11.17s-2.59-5.51-5.14-7.19-5.95-2.52-10.21-2.52h-10.78l-7.08 42.8z"/><path d="m313.55 23.9c-.57-2.61-1.57-4.71-3.01-6.3s-3.14-2.74-5.11-3.45-4.02-1.06-6.15-1.06c-3.67 0-7.05.9-10.11 2.7-3.07 1.8-5.63 4.3-7.69 7.51-2.06 3.2-3.43 6.9-4.13 11.09-.69 4.19-.53 7.86.48 11.01s2.79 5.6 5.35 7.35 5.79 2.62 9.72 2.62c2.79 0 5.35-.43 7.71-1.29 2.35-.86 4.41-2.07 6.18-3.62s3.14-3.36 4.11-5.42l-5.75-1.7c-.76 1.42-1.7 2.6-2.82 3.55s-2.39 1.66-3.81 2.13-2.97.71-4.66.71c-2.64 0-4.84-.44-6.6-1.32s-2.99-2.32-3.69-4.33c-.69-1.96-.78-4.59-.28-7.88h29.74l.43-2.66c.64-3.82.67-7.03.11-9.64zm-6.07 6.87h-23.32c.39-1.8 1.2-3.58 2.45-5.34 1.37-1.93 3.07-3.52 5.11-4.79s4.24-1.9 6.6-1.9 4.18.52 5.68 1.57 2.56 2.48 3.17 4.29.71 3.87.31 6.18z"/><path d="m358.59 13.63-21.93 40.89h-6.39l-8.3-40.89h6.55l5.86 32.58h.43l16.72-32.58h7.08z"/><path d="m97.17 23.18c-1.14-3.18-3.11-5.65-5.91-7.43-2.79-1.77-6.34-2.66-10.63-2.66s-8.12.88-11.49 2.64c-3.36 1.76-6.13 4.22-8.29 7.37-2.17 3.16-3.59 6.83-4.29 11.02-.69 4.21-.47 7.9.67 11.07 1.14 3.18 3.1 5.65 5.9 7.43 2.79 1.77 6.35 2.66 10.66 2.66s8.09-.88 11.45-2.64 6.12-4.21 8.3-7.37 3.62-6.82 4.31-10.99c.69-4.22.47-7.92-.68-11.1zm-18.72 8.91c2.58 1.2 4.73 2.42 4.73 5.25 0 3.6-2.87 5.38-6.53 5.58l-.9 4.56h-2.86l.96-4.77c-2.29-.51-3.98-1.82-5.03-3.13l2.59-2.6c1.22 1.41 2.58 2.5 4.8 2.5 1.77 0 2.76-.59 2.76-1.69 0-.98-1.18-1.59-3.15-2.49-2.5-1.17-4.61-2.52-4.61-5.37 0-3.39 2.44-5.16 5.99-5.39l.75-4.06h2.86l-.81 4.29c2.03.53 3.53 1.78 4.34 2.85l-2.51 2.36c-1.22-1.34-2.53-2.01-4.21-2.01-1.31 0-2.24.48-2.24 1.54s1.16 1.67 3.08 2.57z"/></g></svg>